<svg width="69" height="15" viewBox="0 0 69 15" fill="none" xmlns="http://www.w3.org/2000/svg">
<rect width="69" height="15" fill="white"/>
<path d="M24.807 5.66154C24.7496 5.1774 24.5171 4.80156 24.1094 4.53401C23.7017 4.26647 23.2017 4.13269 22.6093 4.13269C22.1761 4.13269 21.7971 4.20276 21.4722 4.34291C21.1505 4.48305 20.8989 4.67575 20.7173 4.921C20.5389 5.16626 20.4498 5.44495 20.4498 5.75709C20.4498 6.01827 20.5119 6.24282 20.6361 6.43074C20.7635 6.61547 20.9259 6.76995 21.1234 6.89417C21.3209 7.0152 21.5279 7.11553 21.7445 7.19516C21.9611 7.2716 22.1602 7.33371 22.3417 7.38149L23.3355 7.64904C23.5903 7.71593 23.8737 7.80829 24.1859 7.92614C24.5012 8.04399 24.8022 8.20484 25.0889 8.40868C25.3787 8.60934 25.6176 8.86734 25.8055 9.18266C25.9934 9.49799 26.0874 9.88498 26.0874 10.3436C26.0874 10.8724 25.9488 11.3501 25.6717 11.7769C25.3978 12.2037 24.9965 12.5429 24.4678 12.7946C23.9422 13.0462 23.3036 13.172 22.5519 13.172C21.8512 13.172 21.2444 13.0589 20.7316 12.8328C20.222 12.6066 19.8207 12.2913 19.5277 11.8868C19.2378 11.4823 19.0738 11.0125 19.0356 10.4774H20.2587C20.2905 10.8469 20.4147 11.1526 20.6313 11.3947C20.8511 11.6336 21.1282 11.812 21.4626 11.9298C21.8002 12.0445 22.1633 12.1018 22.5519 12.1018C23.0042 12.1018 23.4103 12.0285 23.7702 11.882C24.1301 11.7323 24.4152 11.5253 24.6254 11.2609C24.8356 10.9934 24.9407 10.6813 24.9407 10.3245C24.9407 9.99964 24.85 9.73528 24.6684 9.53143C24.4869 9.32758 24.248 9.16196 23.9518 9.03456C23.6556 8.90715 23.3355 8.79567 22.9915 8.70012L21.7875 8.35613C21.0231 8.13636 20.4179 7.82263 19.972 7.41493C19.5261 7.00724 19.3031 6.47374 19.3031 5.81442C19.3031 5.26659 19.4512 4.78882 19.7474 4.38113C20.0468 3.97025 20.4482 3.65174 20.9514 3.4256C21.4578 3.19627 22.0232 3.08161 22.6475 3.08161C23.2781 3.08161 23.8387 3.19468 24.3292 3.42082C24.8197 3.64378 25.2083 3.94955 25.495 4.33813C25.7848 4.72671 25.9377 5.16785 25.9536 5.66154H24.807ZM28.0355 13V3.21538H29.2203V7.5726H34.4375V3.21538H35.6224V13H34.4375V8.62368H29.2203V13H28.0355ZM39.1793 3.21538V13H37.9945V3.21538H39.1793ZM41.9563 3.21538L44.8611 11.452H44.9758L47.8806 3.21538H49.1228L45.53 13H44.3069L40.7141 3.21538H41.9563ZM50.2073 13H48.9651L52.5579 3.21538H53.781L57.3738 13H56.1316L53.2077 4.76334H53.1312L50.2073 13ZM50.666 9.17788H55.6729V10.229H50.666V9.17788ZM58.8979 3.21538H60.312L63.6373 11.3374H63.7519L67.0772 3.21538H68.4914V13H67.3829V5.56599H67.2874L64.2297 13H63.1595L60.1018 5.56599H60.0063V13H58.8979V3.21538Z" fill="black"/>
<path d="M24.807 5.66154C24.7496 5.1774 24.5171 4.80156 24.1094 4.53401C23.7017 4.26647 23.2017 4.13269 22.6093 4.13269C22.1761 4.13269 21.7971 4.20276 21.4722 4.34291C21.1505 4.48305 20.8989 4.67575 20.7173 4.921C20.5389 5.16626 20.4498 5.44495 20.4498 5.75709C20.4498 6.01827 20.5119 6.24282 20.6361 6.43074C20.7635 6.61547 20.9259 6.76995 21.1234 6.89417C21.3209 7.0152 21.5279 7.11553 21.7445 7.19516C21.9611 7.2716 22.1602 7.33371 22.3417 7.38149L23.3355 7.64904C23.5903 7.71593 23.8737 7.80829 24.1859 7.92614C24.5012 8.04399 24.8022 8.20484 25.0889 8.40868C25.3787 8.60934 25.6176 8.86734 25.8055 9.18266C25.9934 9.49799 26.0874 9.88498 26.0874 10.3436C26.0874 10.8724 25.9488 11.3501 25.6717 11.7769C25.3978 12.2037 24.9965 12.5429 24.4678 12.7946C23.9422 13.0462 23.3036 13.172 22.5519 13.172C21.8512 13.172 21.2444 13.0589 20.7316 12.8328C20.222 12.6066 19.8207 12.2913 19.5277 11.8868C19.2378 11.4823 19.0738 11.0125 19.0356 10.4774H20.2587C20.2905 10.8469 20.4147 11.1526 20.6313 11.3947C20.8511 11.6336 21.1282 11.812 21.4626 11.9298C21.8002 12.0445 22.1633 12.1018 22.5519 12.1018C23.0042 12.1018 23.4103 12.0285 23.7702 11.882C24.1301 11.7323 24.4152 11.5253 24.6254 11.2609C24.8356 10.9934 24.9407 10.6813 24.9407 10.3245C24.9407 9.99964 24.85 9.73528 24.6684 9.53143C24.4869 9.32758 24.248 9.16196 23.9518 9.03456C23.6556 8.90715 23.3355 8.79567 22.9915 8.70012L21.7875 8.35613C21.0231 8.13636 20.4179 7.82263 19.972 7.41493C19.5261 7.00724 19.3031 6.47374 19.3031 5.81442C19.3031 5.26659 19.4512 4.78882 19.7474 4.38113C20.0468 3.97025 20.4482 3.65174 20.9514 3.4256C21.4578 3.19627 22.0232 3.08161 22.6475 3.08161C23.2781 3.08161 23.8387 3.19468 24.3292 3.42082C24.8197 3.64378 25.2083 3.94955 25.495 4.33813C25.7848 4.72671 25.9377 5.16785 25.9536 5.66154H24.807ZM28.0355 13V3.21538H29.2203V7.5726H34.4375V3.21538H35.6224V13H34.4375V8.62368H29.2203V13H28.0355ZM39.1793 3.21538V13H37.9945V3.21538H39.1793ZM41.9563 3.21538L44.8611 11.452H44.9758L47.8806 3.21538H49.1228L45.53 13H44.3069L40.7141 3.21538H41.9563ZM50.2073 13H48.9651L52.5579 3.21538H53.781L57.3738 13H56.1316L53.2077 4.76334H53.1312L50.2073 13ZM50.666 9.17788H55.6729V10.229H50.666V9.17788ZM58.8979 3.21538H60.312L63.6373 11.3374H63.7519L67.0772 3.21538H68.4914V13H67.3829V5.56599H67.2874L64.2297 13H63.1595L60.1018 5.56599H60.0063V13H58.8979V3.21538Z" fill="black"/>
<rect width="16" height="15" rx="3" fill="white"/>
<rect width="16" height="15" rx="3" fill="black"/>
<path fill-rule="evenodd" clip-rule="evenodd" d="M3.08545 7.5C5.57087 7.95136 7.52637 9.80941 8.0014 12.171C8.47644 9.80941 10.4319 7.95136 12.9174 7.5C10.4319 7.04864 8.47644 5.19058 8.0014 2.82901C7.52637 5.19058 5.57087 7.04864 3.08545 7.5ZM2.13091 7.39871C5.26642 7.29178 7.78227 4.90131 7.89481 1.92204H8.108C8.22054 4.90131 10.7364 7.29178 13.8719 7.39871V7.60128C10.7364 7.70822 8.22054 10.0987 8.108 13.078H7.89481C7.78227 10.0987 5.26642 7.70822 2.13091 7.60128V7.39871Z" fill="white"/>
<path fill-rule="evenodd" clip-rule="evenodd" d="M8.07497 1.92204L8 0L7.92503 1.92204H7.89202L7.81529 3.95342C7.52659 5.6937 6.07651 7.06379 4.24113 7.32665L2.12813 7.39871V7.42609L0 7.5L2.12813 7.57391V7.60128L4.24109 7.67334C6.07649 7.9362 7.52659 9.30629 7.81529 11.0466L7.89202 13.078H7.92503L8 15L8.07497 13.078H8.10522L8.18112 11.0687C8.4612 9.31762 9.9162 7.93688 11.7598 7.67322L13.8691 7.60128V7.574L16 7.5L13.8691 7.426V7.39871L11.7597 7.32678C9.91618 7.06311 8.4612 5.68237 8.18112 3.93133L8.10522 1.92204H8.07497ZM8.07497 1.92204H7.92503L7.86472 3.46833C7.8583 3.63274 7.84163 3.79462 7.81529 3.95342L7.69231 7.20896L4.24113 7.32665C4.0824 7.34938 3.9208 7.36384 3.75682 7.36953L2.12813 7.42609V7.57391L3.75682 7.63047C3.92079 7.63616 4.08238 7.65061 4.24109 7.67334L7.69231 7.79104L7.81529 11.0466C7.84163 11.2054 7.8583 11.3673 7.86472 11.5317L7.92503 13.078H8.07497L8.13529 11.5317C8.1414 11.3749 8.15685 11.2204 8.18112 11.0687L8.30492 7.79104L11.7598 7.67322C11.9182 7.65056 12.0795 7.63615 12.2432 7.63047L13.8691 7.574V7.426L12.2432 7.36953C12.0795 7.36385 11.9182 7.34944 11.7597 7.32678L8.30492 7.20896L8.18112 3.93133C8.15685 3.77961 8.1414 3.62512 8.13529 3.46833L8.07497 1.92204ZM7.89839 7.40476L7.99862 4.75129L8.09885 7.40476L10.8915 7.5L8.09885 7.59524L7.99862 10.2487L7.89839 7.59524L5.10576 7.5L7.89839 7.40476Z" fill="white"/>
</svg>
